<?xml version="1.0" encoding="utf-8"?>
<!-- Generated by IcoMoon.io -->
<!DOCTYPE svg PUBLIC "-//W3C//DTD SVG 1.1//EN" "http://www.w3.org/Graphics/SVG/1.1/DTD/svg11.dtd">
<svg version="1.1" xmlns="http://www.w3.org/2000/svg" xmlns:xlink="http://www.w3.org/1999/xlink" width="1024" height="1024" viewBox="0 0 1024 1024">
<g id="icomoon-ignore">
</g>
<path d="M512 162.909c-232.727 0-431.477 144.756-512 349.091 80.523 204.335 279.273 349.091 512 349.091 232.961 0 431.477-144.756 512-349.091-80.523-204.335-279.041-349.091-512-349.091zM512 744.727c-128.466 0-232.727-104.262-232.727-232.727s104.262-232.727 232.727-232.727 232.727 104.262 232.727 232.727-104.262 232.727-232.727 232.727zM512 372.364c-77.032 0-139.636 62.604-139.636 139.636s62.604 139.636 139.636 139.636 139.636-62.604 139.636-139.636-62.604-139.636-139.636-139.636z"></path>
</svg>
