<?xml version="1.0" encoding="utf-8"?>
<!-- Generated by IcoMoon.io -->
<!DOCTYPE svg PUBLIC "-//W3C//DTD SVG 1.1//EN" "http://www.w3.org/Graphics/SVG/1.1/DTD/svg11.dtd">
<svg version="1.1" xmlns="http://www.w3.org/2000/svg" xmlns:xlink="http://www.w3.org/1999/xlink" width="1024" height="1024" viewBox="0 0 1024 1024">
<g id="icomoon-ignore">
</g>
<path d="M97.279 511.999c0-87.552 71.169-158.721 158.721-158.721h204.801v-97.281h-204.801c-141.312 0-256 114.688-256 256s114.688 256 256 256h204.801v-97.281h-204.801c-87.552 0-158.721-71.169-158.721-158.721zM307.199 563.199h409.6v-102.4h-409.6v102.4zM768 255.999h-204.801v97.281h204.801c87.552 0 158.721 71.169 158.721 158.721s-71.169 158.721-158.721 158.721h-204.801v97.281h204.801c141.312 0 256-114.688 256-256s-114.688-256-256-256z"></path>
</svg>
