<?xml version="1.0" encoding="utf-8"?>
<!-- Generated by IcoMoon.io -->
<!DOCTYPE svg PUBLIC "-//W3C//DTD SVG 1.1//EN" "http://www.w3.org/Graphics/SVG/1.1/DTD/svg11.dtd">
<svg version="1.1" xmlns="http://www.w3.org/2000/svg" xmlns:xlink="http://www.w3.org/1999/xlink" width="1024" height="1024" viewBox="0 0 1024 1024">
<g id="icomoon-ignore">
</g>
<path d="M731.845 644.025h-46.546l-16.1-16.1c57.376-66.452 91.921-152.81 91.921-247.365 0-210.186-170.374-380.56-380.56-380.56s-380.56 170.374-380.56 380.56 170.374 380.56 380.56 380.56c94.555 0 180.913-34.543 247.365-91.627l16.1 16.1v46.253l292.739 292.154 87.236-87.236-292.154-292.739zM380.558 644.025c-145.492 0-263.465-117.973-263.465-263.465s117.973-263.465 263.465-263.465 263.465 117.973 263.465 263.465-117.973 263.465-263.465 263.465z"></path>
</svg>
