<?xml version="1.0" encoding="utf-8"?>
<!-- Generated by IcoMoon.io -->
<!DOCTYPE svg PUBLIC "-//W3C//DTD SVG 1.1//EN" "http://www.w3.org/Graphics/SVG/1.1/DTD/svg11.dtd">
<svg version="1.1" xmlns="http://www.w3.org/2000/svg" xmlns:xlink="http://www.w3.org/1999/xlink" width="1024" height="1024" viewBox="0 0 1024 1024">
<g id="icomoon-ignore">
</g>
<path d="M731.846 644.025h-46.253l-16.394-15.808c57.376-66.745 91.921-153.396 91.921-247.657 0-210.186-170.374-380.56-380.56-380.56s-380.56 170.374-380.56 380.56 170.374 380.56 380.56 380.56c94.262 0 180.913-34.543 247.657-91.921l15.808 16.394v46.253l292.739 292.154 87.236-87.236-292.154-292.739zM380.559 644.025c-145.784 0-263.465-117.681-263.465-263.465s117.681-263.465 263.465-263.465 263.465 117.681 263.465 263.465-117.681 263.465-263.465 263.465z"></path>
<path d="M526.929 409.835h-117.095v117.095h-58.548v-117.095h-117.095v-58.548h117.095v-117.095h58.548v117.095h117.095v58.548z"></path>
</svg>
